<mxfile host="app.diagrams.net" modified="2024-04-11T09:38:08.066Z" agent="Mozilla/5.0 (Windows NT 10.0; Win64; x64) AppleWebKit/537.36 (KHTML, like Gecko) Chrome/123.0.0.0 Safari/537.36" etag="4K-ffdX6hWUFTk3SIZgk" version="24.0.5" type="device">
  <diagram name="Page-1" id="TdRFusOSkXA11kUlDqxB">
    <mxGraphModel dx="472" dy="856" grid="1" gridSize="10" guides="1" tooltips="1" connect="1" arrows="1" fold="1" page="1" pageScale="1" pageWidth="827" pageHeight="1169" math="0" shadow="0">
      <root>
        <mxCell id="0" />
        <mxCell id="1" parent="0" />
        <mxCell id="uRL12_S4JmoijMKtnS6M-1" value="Start" style="ellipse;whiteSpace=wrap;html=1;" vertex="1" parent="1">
          <mxGeometry x="200" y="20" width="120" height="80" as="geometry" />
        </mxCell>
        <mxCell id="uRL12_S4JmoijMKtnS6M-2" value="Take numerator and denominator d from user" style="shape=parallelogram;perimeter=parallelogramPerimeter;whiteSpace=wrap;html=1;fixedSize=1;" vertex="1" parent="1">
          <mxGeometry x="180" y="150" width="160" height="70" as="geometry" />
        </mxCell>
        <mxCell id="uRL12_S4JmoijMKtnS6M-4" value="" style="endArrow=classic;html=1;rounded=0;entryX=0.5;entryY=0;entryDx=0;entryDy=0;" edge="1" parent="1" target="uRL12_S4JmoijMKtnS6M-2">
          <mxGeometry width="50" height="50" relative="1" as="geometry">
            <mxPoint x="260" y="100" as="sourcePoint" />
            <mxPoint x="310" y="50" as="targetPoint" />
          </mxGeometry>
        </mxCell>
        <mxCell id="uRL12_S4JmoijMKtnS6M-10" style="edgeStyle=orthogonalEdgeStyle;rounded=0;orthogonalLoop=1;jettySize=auto;html=1;entryX=0.5;entryY=0;entryDx=0;entryDy=0;" edge="1" parent="1" source="uRL12_S4JmoijMKtnS6M-5" target="uRL12_S4JmoijMKtnS6M-7">
          <mxGeometry relative="1" as="geometry">
            <mxPoint x="410" y="300" as="targetPoint" />
          </mxGeometry>
        </mxCell>
        <mxCell id="uRL12_S4JmoijMKtnS6M-11" value="Yes" style="edgeLabel;html=1;align=center;verticalAlign=middle;resizable=0;points=[];" vertex="1" connectable="0" parent="uRL12_S4JmoijMKtnS6M-10">
          <mxGeometry x="-0.7733" y="-1" relative="1" as="geometry">
            <mxPoint as="offset" />
          </mxGeometry>
        </mxCell>
        <mxCell id="uRL12_S4JmoijMKtnS6M-15" style="edgeStyle=orthogonalEdgeStyle;rounded=0;orthogonalLoop=1;jettySize=auto;html=1;entryX=0.5;entryY=0;entryDx=0;entryDy=0;" edge="1" parent="1" source="uRL12_S4JmoijMKtnS6M-5" target="uRL12_S4JmoijMKtnS6M-14">
          <mxGeometry relative="1" as="geometry" />
        </mxCell>
        <mxCell id="uRL12_S4JmoijMKtnS6M-16" value="No" style="edgeLabel;html=1;align=center;verticalAlign=middle;resizable=0;points=[];" vertex="1" connectable="0" parent="uRL12_S4JmoijMKtnS6M-15">
          <mxGeometry x="-0.5" y="1" relative="1" as="geometry">
            <mxPoint as="offset" />
          </mxGeometry>
        </mxCell>
        <mxCell id="uRL12_S4JmoijMKtnS6M-5" value="is d = 0?" style="rhombus;whiteSpace=wrap;html=1;" vertex="1" parent="1">
          <mxGeometry x="200" y="260" width="120" height="80" as="geometry" />
        </mxCell>
        <mxCell id="uRL12_S4JmoijMKtnS6M-6" value="" style="endArrow=classic;html=1;rounded=0;entryX=0.5;entryY=0;entryDx=0;entryDy=0;" edge="1" parent="1" target="uRL12_S4JmoijMKtnS6M-5">
          <mxGeometry width="50" height="50" relative="1" as="geometry">
            <mxPoint x="260" y="220" as="sourcePoint" />
            <mxPoint x="310" y="170" as="targetPoint" />
          </mxGeometry>
        </mxCell>
        <mxCell id="uRL12_S4JmoijMKtnS6M-12" style="edgeStyle=orthogonalEdgeStyle;rounded=0;orthogonalLoop=1;jettySize=auto;html=1;" edge="1" parent="1" source="uRL12_S4JmoijMKtnS6M-7" target="uRL12_S4JmoijMKtnS6M-13">
          <mxGeometry relative="1" as="geometry">
            <mxPoint x="260" y="510" as="targetPoint" />
            <Array as="points">
              <mxPoint x="260" y="510" />
            </Array>
          </mxGeometry>
        </mxCell>
        <mxCell id="uRL12_S4JmoijMKtnS6M-7" value="Display&quot; Denominator can not be Zero&quot;" style="shape=parallelogram;perimeter=parallelogramPerimeter;whiteSpace=wrap;html=1;fixedSize=1;" vertex="1" parent="1">
          <mxGeometry x="330" y="465" width="140" height="90" as="geometry" />
        </mxCell>
        <mxCell id="uRL12_S4JmoijMKtnS6M-13" value="Stop" style="ellipse;whiteSpace=wrap;html=1;" vertex="1" parent="1">
          <mxGeometry x="200" y="600" width="120" height="80" as="geometry" />
        </mxCell>
        <mxCell id="uRL12_S4JmoijMKtnS6M-18" value="" style="edgeStyle=orthogonalEdgeStyle;rounded=0;orthogonalLoop=1;jettySize=auto;html=1;" edge="1" parent="1" source="uRL12_S4JmoijMKtnS6M-14" target="uRL12_S4JmoijMKtnS6M-17">
          <mxGeometry relative="1" as="geometry" />
        </mxCell>
        <mxCell id="uRL12_S4JmoijMKtnS6M-14" value="Calculate q = n /d" style="rounded=0;whiteSpace=wrap;html=1;" vertex="1" parent="1">
          <mxGeometry x="30" y="350" width="120" height="60" as="geometry" />
        </mxCell>
        <mxCell id="uRL12_S4JmoijMKtnS6M-19" style="edgeStyle=orthogonalEdgeStyle;rounded=0;orthogonalLoop=1;jettySize=auto;html=1;entryX=0.5;entryY=0;entryDx=0;entryDy=0;" edge="1" parent="1" source="uRL12_S4JmoijMKtnS6M-17" target="uRL12_S4JmoijMKtnS6M-13">
          <mxGeometry relative="1" as="geometry">
            <mxPoint x="280" y="510" as="targetPoint" />
          </mxGeometry>
        </mxCell>
        <mxCell id="uRL12_S4JmoijMKtnS6M-17" value="Display q" style="shape=parallelogram;perimeter=parallelogramPerimeter;whiteSpace=wrap;html=1;fixedSize=1;rounded=0;" vertex="1" parent="1">
          <mxGeometry x="30" y="480" width="120" height="60" as="geometry" />
        </mxCell>
      </root>
    </mxGraphModel>
  </diagram>
</mxfile>
